<?xml version="1.0" encoding="iso-8859-1"?>
<!-- Generator: Adobe Illustrator 19.0.0, SVG Export Plug-In . SVG Version: 6.00 Build 0)  -->
<svg version="1.1" id="Layer_1" xmlns="http://www.w3.org/2000/svg" xmlns:xlink="http://www.w3.org/1999/xlink" x="0px" y="0px"
	 viewBox="0 0 512 512" style="enable-background:new 0 0 512 512;" xml:space="preserve">
<g>
	<g>
		<path d="M106.146,224.781v37.463h56.195c0,20.69,9.784,37.463,21.854,37.463s21.854-16.774,21.854-37.463v-37.463H106.146z"/>
	</g>
</g>
<g>
	<g>
		<path d="M305.951,224.781v37.463h56.195c0,20.69,9.785,37.463,21.854,37.463c12.069,0,21.854-16.774,21.854-37.463v-37.463
			H305.951z"/>
	</g>
</g>
<g>
	<g>
		<path d="M256,0C114.84,0,0,114.842,0,256s114.84,256,256,256s256-114.842,256-256S397.16,0,256,0z M256,474.537
			c-120.501,0-218.537-98.036-218.537-218.537S135.499,37.463,256,37.463S474.537,135.499,474.537,256S376.501,474.537,256,474.537z
			"/>
	</g>
</g>
<g>
	<g>
		<path d="M188.643,125.536c-40.087,10.907-77.366,31.775-107.805,60.349l25.64,27.315c25.99-24.397,57.802-42.21,92-51.515
			L188.643,125.536z"/>
	</g>
</g>
<g>
	<g>
		<path d="M323.357,125.535l-9.835,36.148c34.198,9.305,66.011,27.119,92,51.515l25.64-27.315
			C400.722,157.31,363.444,136.442,323.357,125.535z"/>
	</g>
</g>
<g>
	<g>
		<path d="M332.482,336.233c-22.313,29.579-55.417,43.067-90.939,36.963l-73.929-12.203l-6.102,36.964l73.81,12.184
			c7.593,1.302,15.143,1.943,22.607,1.943c40.682,0,78.609-19.019,104.461-53.289L332.482,336.233z"/>
	</g>
</g>
<g>
</g>
<g>
</g>
<g>
</g>
<g>
</g>
<g>
</g>
<g>
</g>
<g>
</g>
<g>
</g>
<g>
</g>
<g>
</g>
<g>
</g>
<g>
</g>
<g>
</g>
<g>
</g>
<g>
</g>
</svg>
